<?xml version="1.0" encoding="UTF-8"?>
<svg id="Layer_2" data-name="Layer 2" xmlns="http://www.w3.org/2000/svg" viewBox="0 0 448.12 90.32">
  <defs>
    <style>
      .cls-1 {
        fill: #0c2479;
      }
    </style>
  </defs>
  <g id="Layer_1-2" data-name="Layer 1">
    <g>
      <path class="cls-1" d="M1.07,61.61L12.33,8.66h20.66l-4.08,19.05h21.4l-3.22,15.09h-21.28l-3.96,18.43c-1.36,6.56-.37,12.5,9.65,12.5,4.08,0,7.18-.87,12.74-2.6l-3.34,15.47c-6.8,2.6-13.86,3.71-19.67,3.71-16.46,0-24.25-9.65-20.17-28.7Z"/>
      <path class="cls-1" d="M50.81,60.25c4.7-21.9,22.15-33.78,46.02-33.78,10.64,0,19.55,1.98,25.86,4.7l-12.37,57.9h-20.66l2.72-12.87c-5.57,9.65-13.11,14.1-22.39,14.1-15.47,0-22.77-12.99-19.18-30.06ZM80.13,75.1c8.66,0,14.85-9.65,18.19-26.72l.99-4.83c-2.47-.87-4.95-1.24-7.55-1.24-9.9,0-18.06,5.94-20.41,16.95-1.98,9.4,1.24,15.84,8.78,15.84Z"/>
      <path class="cls-1" d="M133.7,27.71h20.66l-2.97,13.98c6.31-10.89,15.22-15.22,24.87-15.22,13.61,0,20.79,9.53,16.21,30.68l-6.8,31.92h-20.66l6.93-31.92c2.1-10.39.62-15.59-5.94-15.59-7.79,0-16.21,7.05-21.9,34.27l-2.72,13.24h-20.66l12.99-61.37Z"/>
      <path class="cls-1" d="M199.52,60.25c4.58-21.9,22.15-33.78,46.03-33.78,2.23,0,4.33.12,6.31.37l5.57-26.85h20.66l-19.05,89.08h-20.66l2.72-12.87c-5.57,9.65-13.11,14.1-22.39,14.1-15.47,0-22.77-12.99-19.18-30.06ZM228.72,75.1c8.78,0,14.97-9.65,18.31-26.72l.99-4.83c-2.47-.87-4.95-1.24-7.55-1.24-9.9,0-18.06,5.94-20.41,16.95-1.98,9.4,1.24,15.84,8.66,15.84Z"/>
      <path class="cls-1" d="M273.88,56.29c4.21-19.67,19.92-29.82,41.2-29.82,15.59,0,25.36,7.55,22.77,19.92-1.73,9.16-9.16,19.3-33.53,19.3-4.58,0-8.04-.62-11.26-2.1.49,8.41,6.43,11.75,17.44,11.75,6.93,0,13.86-1.48,20.17-4.45l-2.6,12.37c-7.42,5.07-16.7,7.05-26.72,7.05-21.65,0-31.92-13.36-27.47-34.02ZM304.07,53.7c9.4,0,13.98-2.85,14.72-6.8.99-4.08-1.36-6.93-6.93-6.93-6.56,0-13.73,2.97-17.07,12.37,2.47.87,5.32,1.36,9.28,1.36Z"/>
      <path class="cls-1" d="M349.6,27.71h20.66l-2.85,13.61c6.31-10.52,14.6-14.85,23.26-14.85s15.47,4.58,15.96,16.46c7.42-12.12,16.83-16.46,26.11-16.46,11.88,0,18.43,8.66,13.98,29.32l-7.05,33.28h-20.66l7.05-33.28c1.48-6.68,2.85-14.23-4.08-14.23s-15.22,6.19-22.64,43.18l-.87,4.33h-20.66l6.93-32.79c1.48-6.68,2.97-14.72-4.08-14.72s-14.85,6.43-22.64,43.3l-.74,4.21h-20.66l12.99-61.37Z"/>
    </g>
  </g>
</svg>